<?xml version="1.0" encoding="UTF-8"?>
<svg width="23px" height="22px" viewBox="0 0 23 22" version="1.1" xmlns="http://www.w3.org/2000/svg" xmlns:xlink="http://www.w3.org/1999/xlink">
    <title>icon_pure_card_share22_svg</title>
    <g id="页面-1" stroke="none" stroke-width="1" fill="none" fill-rule="evenodd">
        <g id="参考线_16px备份-48" transform="translate(0.500000, 0.000000)">
            <g id="24通用@1x-copy-3备份-4" stroke-width="0.1">
                <g id="Group-16">
                    <rect id="Rectangle-6-Copy-14" stroke="#CCCCCC" x="0" y="7.33333333" width="22" height="7.33333333"></rect>
                    <rect id="Rectangle-6-Copy-13" stroke="#CCCCCC" x="7.33333333" y="0" width="7.33333333" height="22"></rect>
                    <line x1="0" y1="0" x2="22" y2="22" id="Rectangle-6-Copy-9" stroke="#CCCCCC"></line>
                    <line x1="0" y1="0" x2="22" y2="22" id="Rectangle-6-Copy-12" stroke="#CCCCCC" transform="translate(11.000000, 11.000000) scale(-1, 1) translate(-11.000000, -11.000000) "></line>
                    <rect id="Rectangle-6-Copy-10" stroke="#CCCCCC" x="0.916666667" y="3.08916219" width="20.1666667" height="15.8216669"></rect>
                    <rect id="Rectangle-9" stroke="#CCCCCC" x="3.08927409" y="0.916666667" width="15.8216669" height="20.1666667"></rect>
                    <polygon id="Rectangle-6-Copy-6" stroke="#666666" points="2.0625 2.0625 19.9375 2.0625 19.9375 19.9375 2.0625 19.9375"></polygon>
                    <circle id="Oval-23-Copy-3" stroke="#666666" cx="11" cy="11" r="10.45"></circle>
                    <circle id="Oval-23-Copy-5" stroke="#CCCCCC" cx="11" cy="11" r="5.27083333"></circle>
                    <rect id="Rectangle-6-Copy-4" stroke="#CCCCCC" x="0" y="0" width="22" height="22"></rect>
                </g>
            </g>
            <g id="Group-16" stroke="#CCCCCC">
                <g id="Group" opacity="0.300000012" stroke-width="0.1">
                    <rect id="Rectangle-6-Copy-71" x="0" y="0" width="1" height="22"></rect>
                    <rect id="Rectangle-6-Copy-72" x="1.83333333" y="0" width="1" height="22"></rect>
                    <rect id="Rectangle-6-Copy-73" x="3.66666667" y="0" width="1" height="22"></rect>
                    <rect id="Rectangle-6-Copy-74" x="5.5" y="0" width="1" height="22"></rect>
                    <rect id="Rectangle-6-Copy-75" x="7.33333333" y="0" width="1" height="22"></rect>
                    <rect id="Rectangle-6-Copy-76" x="9.16666667" y="0" width="1" height="22"></rect>
                    <rect id="Rectangle-6-Copy-77" x="11" y="0" width="1" height="22"></rect>
                    <rect id="Rectangle-6-Copy-78" x="12.8333333" y="0" width="1" height="22"></rect>
                    <rect id="Rectangle-6-Copy-79" x="14.6666667" y="0" width="1" height="22"></rect>
                    <rect id="Rectangle-6-Copy-80" x="16.5" y="0" width="1" height="22"></rect>
                    <rect id="Rectangle-6-Copy-81" x="18.3333333" y="0" width="1" height="22"></rect>
                    <rect id="Rectangle-6-Copy-82" x="20.1666667" y="0" width="1" height="22"></rect>
                    <rect id="Rectangle-6-Copy-83" x="0" y="0" width="22" height="1"></rect>
                    <rect id="Rectangle-6-Copy-84" x="0" y="1.83333333" width="22" height="1"></rect>
                    <rect id="Rectangle-6-Copy-85" x="0" y="3.66666667" width="22" height="1"></rect>
                    <rect id="Rectangle-6-Copy-86" x="0" y="5.5" width="22" height="1"></rect>
                    <rect id="Rectangle-6-Copy-87" x="0" y="7.33333333" width="22" height="1"></rect>
                    <rect id="Rectangle-6-Copy-88" x="0" y="9.16666667" width="22" height="1"></rect>
                    <rect id="Rectangle-6-Copy-89" x="0" y="11" width="22" height="1"></rect>
                    <rect id="Rectangle-6-Copy-90" x="0" y="12.8333333" width="22" height="1"></rect>
                    <rect id="Rectangle-6-Copy-91" x="0" y="14.6666667" width="22" height="1"></rect>
                    <rect id="Rectangle-6-Copy-92" x="0" y="16.5" width="22" height="1"></rect>
                    <rect id="Rectangle-6-Copy-93" x="0" y="18.3333333" width="22" height="1"></rect>
                    <rect id="Rectangle-6-Copy-94" x="0" y="20.1666667" width="22" height="1"></rect>
                </g>
                <rect id="Rectangle-6-Copy-4" stroke-width="0.2" x="0" y="0" width="22" height="22"></rect>
            </g>
        </g>
        <g id="编组-19" transform="translate(0.500000, 0.000000)">
            <g id="编组" opacity="0">
                <g id="参考线_16px备份-2">
                    <g id="24通用@1x-copy-3备份-4" stroke-width="0.1">
                        <g id="Group-16">
                            <rect id="Rectangle-6-Copy-14" stroke="#CCCCCC" x="0" y="7.33333333" width="22" height="7.33333333"></rect>
                            <rect id="Rectangle-6-Copy-13" stroke="#CCCCCC" x="7.33333333" y="0" width="7.33333333" height="22"></rect>
                            <line x1="0" y1="0" x2="22" y2="22" id="Rectangle-6-Copy-9" stroke="#CCCCCC"></line>
                            <line x1="0" y1="0" x2="22" y2="22" id="Rectangle-6-Copy-12" stroke="#CCCCCC" transform="translate(11.000000, 11.000000) scale(-1, 1) translate(-11.000000, -11.000000) "></line>
                            <rect id="Rectangle-6-Copy-10" stroke="#CCCCCC" x="0.916666667" y="3.08916219" width="20.1666667" height="15.8216669"></rect>
                            <rect id="Rectangle-9" stroke="#CCCCCC" x="3.08927409" y="0.916666667" width="15.8216669" height="20.1666667"></rect>
                            <polygon id="Rectangle-6-Copy-6" stroke="#666666" points="2.0625 2.0625 19.9375 2.0625 19.9375 19.9375 2.0625 19.9375"></polygon>
                            <circle id="Oval-23-Copy-3" stroke="#666666" cx="11" cy="11" r="10.45"></circle>
                            <circle id="Oval-23-Copy-5" stroke="#CCCCCC" cx="11" cy="11" r="5.27083333"></circle>
                            <rect id="Rectangle-6-Copy-4" stroke="#CCCCCC" x="0" y="0" width="22" height="22"></rect>
                        </g>
                    </g>
                    <g id="Group-16" stroke="#CCCCCC">
                        <g id="Group" opacity="0.300000012" stroke-width="0.1">
                            <rect id="Rectangle-6-Copy-71" x="0" y="0" width="1" height="22"></rect>
                            <rect id="Rectangle-6-Copy-72" x="1.83333333" y="0" width="1" height="22"></rect>
                            <rect id="Rectangle-6-Copy-73" x="3.66666667" y="0" width="1" height="22"></rect>
                            <rect id="Rectangle-6-Copy-74" x="5.5" y="0" width="1" height="22"></rect>
                            <rect id="Rectangle-6-Copy-75" x="7.33333333" y="0" width="1" height="22"></rect>
                            <rect id="Rectangle-6-Copy-76" x="9.16666667" y="0" width="1" height="22"></rect>
                            <rect id="Rectangle-6-Copy-77" x="11" y="0" width="1" height="22"></rect>
                            <rect id="Rectangle-6-Copy-78" x="12.8333333" y="0" width="1" height="22"></rect>
                            <rect id="Rectangle-6-Copy-79" x="14.6666667" y="0" width="1" height="22"></rect>
                            <rect id="Rectangle-6-Copy-80" x="16.5" y="0" width="1" height="22"></rect>
                            <rect id="Rectangle-6-Copy-81" x="18.3333333" y="0" width="1" height="22"></rect>
                            <rect id="Rectangle-6-Copy-82" x="20.1666667" y="0" width="1" height="22"></rect>
                            <rect id="Rectangle-6-Copy-83" x="0" y="0" width="22" height="1"></rect>
                            <rect id="Rectangle-6-Copy-84" x="0" y="1.83333333" width="22" height="1"></rect>
                            <rect id="Rectangle-6-Copy-85" x="0" y="3.66666667" width="22" height="1"></rect>
                            <rect id="Rectangle-6-Copy-86" x="0" y="5.5" width="22" height="1"></rect>
                            <rect id="Rectangle-6-Copy-87" x="0" y="7.33333333" width="22" height="1"></rect>
                            <rect id="Rectangle-6-Copy-88" x="0" y="9.16666667" width="22" height="1"></rect>
                            <rect id="Rectangle-6-Copy-89" x="0" y="11" width="22" height="1"></rect>
                            <rect id="Rectangle-6-Copy-90" x="0" y="12.8333333" width="22" height="1"></rect>
                            <rect id="Rectangle-6-Copy-91" x="0" y="14.6666667" width="22" height="1"></rect>
                            <rect id="Rectangle-6-Copy-92" x="0" y="16.5" width="22" height="1"></rect>
                            <rect id="Rectangle-6-Copy-93" x="0" y="18.3333333" width="22" height="1"></rect>
                            <rect id="Rectangle-6-Copy-94" x="0" y="20.1666667" width="22" height="1"></rect>
                        </g>
                        <rect id="Rectangle-6-Copy-4" stroke-width="0.2" x="0" y="0" width="22" height="22"></rect>
                    </g>
                </g>
            </g>
            <g id="编组" transform="translate(3.384615, 2.692308)" stroke="#141414" stroke-linecap="round" stroke-width="2">
                <path d="M5.44168744,15.9143635 C2.44002479,15.9143635 2.93386448,15.9143635 6.92320651,15.9143635 C1.35503135,15.8240188 0.0936702935,16.900875 0.00347002619,10.045787 C0.00114690363,9.86923312 1.86517468e-14,9.68740551 1.86517468e-14,9.50014773 C1.86517468e-14,3.93838556 1.29650563,4.56318364 3.32092344,4.56318364 C4.39522391,3.81179826 4.73741075,3.45789396 5.18506128,2.88371919 C6.36973028,1.36421459 6.6048635,0.618191775 7.31955636,0.177868617 C8.03424922,-0.262454542 10.0064572,0.0051875359 9.46308795,2.23987324 C9.45401201,2.27719939 9.34248971,2.85787513 9.12852107,3.98190045" id="路径"></path>
                <path d="M5.57466063,15.9049359 L5.84150855,15.9049359 C11.3929525,15.9049359 14.8123832,16.5043409 15.1218699,11.538284 C15.1432459,11.1952824 15.1211932,9.15758502 15.1218699,8.85228446 C15.1347196,3.05469052 13.5560189,4.1693506 9.69035903,3.99079556 C9.61828309,3.98746636 9.20218623,3.98457777 9.12852107,3.98190045" id="路径"></path>
                <line x1="3.58371041" y1="4.77828054" x2="3.58371041" y2="15.9276018" id="路径-16备份"></line>
            </g>
        </g>
    </g>
</svg>